<svg xmlns="http://www.w3.org/2000/svg" version="1.1" xmlns:xlink="http://www.w3.org/1999/xlink" xmlns:svgjs="http://svgjs.dev/svgjs" width="100%" height="100%" viewBox="0 0 1000 600"><rect width="1000" height="600" x="0" y="0" fill="hsl(223 40% 14%)"/><g><rect width="333.3333333333333" height="333.3333333333333" y="190.92316864086936" fill="hsl(223 2%   95.7%)" transform="matrix(0.7409560310613014,0,0,0.7409560310613013,0,35.04163213248013)" x="168.700927734375"/><path d="M277.4276790893889 432.5898387079003L277.4276790893889 425.8594444180692L292.6149601173122 425.8594444180692Q298.2919013878654 425.8594444180692 298.2919013878654 420.15324056364716L298.2919013878654 420.15324056364716L298.2919013878654 294.9971693566571Q298.2919013878654 292.070910969774 296.9165599460303 290.6955695279389Q295.57048108806407 289.3202280861039 292.6149601173122 289.3202280861039L292.6149601173122 289.3202280861039L277.4276790893889 289.3202280861039L277.4276790893889 282.5898337962727L341.92241393629234 282.5898337962727L341.92241393629234 289.3202280861039L323.3699357634535 289.3202280861039Q320.41441479270156 289.3202280861039 319.0390733508665 290.6955695279389Q317.6929944929003 292.070910969774 317.6929944929003 294.9971693566571L317.6929944929003 294.9971693566571L317.6929944929003 420.15324056364716Q317.6929944929003 425.8594444180692 323.3699357634535 425.8594444180692L323.3699357634535 425.8594444180692L344.64383423609365 425.8594444180692Q355.82214127398703 425.8594444180692 364.65944160237405 420.7970174087614Q373.5260045146298 415.7345903994536 377.94465467882327 406.04867513887064L377.94465467882327 406.04867513887064Q381.3098518237388 398.87934209100706 383.53380819777 390.7736063593409Q385.7285019879323 382.6678706276747 386.78195500721023 376.9616667732526Q387.8354080264881 371.2847255026994 388.04024611356994 369.792333725389L388.04024611356994 369.792333725389L393.3075112099595 369.792333725389L391.43470584235433 432.5898387079003L277.4276790893889 432.5898387079003Z " fill="hsl(223 40% 14%)" transform="matrix(0.7409560310613014,0,0,0.7409560310613013,0,35.04163213248013)"/><path d="M585.3675937945999 430.11477934112395L585.3675937945999 423.49543922082046L600.304278674763 423.49543922082046Q605.8875481675407 423.49543922082046 605.8875481675407 417.88338998838924L605.8875481675407 417.88338998838924L605.8875481675407 294.7924434903978Q605.8875481675407 291.9144695250484 604.5349004038266 290.5618217613343Q603.2110323797658 289.20917399762004 600.304278674763 289.20917399762004L600.304278674763 289.20917399762004L585.3675937945999 289.20917399762004L585.3675937945999 282.58983387731655L648.7981399908995 282.58983387731655L648.7981399908995 289.20917399762004L630.5517850505846 289.20917399762004Q627.6450313455817 289.20917399762004 626.2923835818676 290.5618217613343Q624.9685155578069 291.9144695250484 624.9685155578069 294.7924434903978L624.9685155578069 294.7924434903978L624.9685155578069 417.88338998838924Q624.9685155578069 423.49543922082046 630.5517850505846 423.49543922082046L630.5517850505846 423.49543922082046L651.4746557786743 423.49543922082046Q662.4685163263089 423.49543922082046 671.1599977016639 418.51654426076607Q679.8802588166724 413.53764930071173 684.2259995043499 404.01155547540543L684.2259995043499 404.01155547540543Q687.5356695645016 396.9605192602995 689.7229297781671 388.9885313762818Q691.8814102521792 381.01654349226413 692.917480879705 375.4044942598329Q693.9535515072307 369.8212247670552 694.1550096848051 368.353458044727L694.1550096848051 368.353458044727L699.3353628224339 368.353458044727L697.4934594846104 430.11477934112395L585.3675937945999 430.11477934112395ZM747.8292241385705 432.5898369513244Q736.8641433305894 432.5898369513244 728.8633757069182 427.2080256361211Q720.8913878229005 421.82621432091787 720.8913878229005 408.15583798550847L720.8913878229005 408.15583798550847Q720.8913878229005 397.59367353267635 726.2731991381038 391.5787079450962Q731.6837901929606 385.5637423575161 738.821165627027 382.9735657887017Q745.9585410610933 380.38338921988725 756.1177891587765 378.5127061424102L756.1177891587765 378.5127061424102L775.1987565490426 375.00157790468404L775.1987565490426 357.388377236746Q775.1987565490426 338.1059516689054 755.916330981202 338.1059516689054L755.916330981202 338.1059516689054Q748.8652947660962 338.1059516689054 743.080567095744 341.7321988652456Q737.2670596857383 345.35844606158577 737.2670596857383 349.9344246664912L737.2670596857383 349.9344246664912Q737.2670596857383 352.00656592154274 737.9002139581152 353.0426365490685L737.9002139581152 353.0426365490685Q738.3031303132641 353.6470110817919 739.2240819821759 354.28016535416873Q740.1738133907411 354.88453988689207 741.0084258406924 355.11477780412L741.0084258406924 355.11477780412Q744.7210122559931 356.1508484316458 746.7068142920841 357.99275176946935Q748.6638365885217 359.86343484694646 748.6638365885217 363.1731049070982L748.6638365885217 363.1731049070982Q748.6638365885217 367.5476253344292 746.0736600197073 369.38952867225277Q743.4834834508929 371.2602117497299 739.5406591183643 371.2602117497299L739.5406591183643 371.2602117497299Q734.9934602531123 371.2602117497299 731.2520940981582 367.74908351200366Q727.5395076828576 364.20917553462397 727.5395076828576 357.5898354143205L727.5395076828576 357.5898354143205Q727.5395076828576 349.9344246664912 731.7701294119211 344.32237543406Q736.029530880638 338.7391059412823 742.7639899595556 335.9474711948934Q749.498449038473 333.12705670885106 756.549485253579 333.12705670885106L756.549485253579 333.12705670885106Q770.2198615889884 333.12705670885106 780.1488717694435 340.2932118825709Q790.1066616895523 347.4305873166373 790.1066616895523 362.5687303743748L790.1066616895523 362.5687303743748L790.1066616895523 413.53764930071173Q790.1066616895523 423.8983555759694 796.5245436322814 423.8983555759694L796.5245436322814 423.8983555759694Q801.7048967699102 423.8983555759694 803.9784962025361 417.88338998838924Q806.2808753748157 411.8684244008091 806.2808753748157 403.1769430254541L806.2808753748157 403.1769430254541L809.9934617901163 403.1769430254541Q809.9934617901163 415.60979055576325 806.3672145937761 424.0998137535438Q802.740967397436 432.5898369513244 793.416331749704 432.5898369513244L793.416331749704 432.5898369513244Q784.5233921967745 432.5898369513244 780.0625325504831 427.3231445947351Q775.6016729041916 422.0276724984923 775.1987565490426 412.70303685076044L775.1987565490426 412.70303685076044L774.1626859215169 412.3001204956115Q771.0544740389396 419.5526148882918 764.0897770427943 426.08561578963486Q757.1538597863023 432.5898369513244 747.8292241385705 432.5898369513244L747.8292241385705 432.5898369513244ZM751.1388941987221 425.1358843810696Q760.463529846454 425.1358843810696 765.7590019426968 417.7970507694288Q771.0544740389396 410.4294374181344 775.1987565490426 399.03266051535104L775.1987565490426 399.03266051535104L775.1987565490426 379.3473185923615L757.1538597863023 383.2901429248901Q747.2248496058471 385.36228417994164 742.7639899595556 391.46358898648225Q738.3031303132641 397.59367353267635 738.3031303132641 408.7602125182318L738.3031303132641 408.7602125182318Q738.3031303132641 418.31508608319166 742.2459546457926 421.71109536230387Q746.1887789783214 425.1358843810696 751.1388941987221 425.1358843810696L751.1388941987221 425.1358843810696ZM821.5916968704742 430.11477934112395L821.5916968704742 425.1358843810696L830.3119579854826 425.1358843810696Q832.7870155956831 425.1358843810696 833.8230862232089 424.0998137535438Q834.8591568507346 423.06374312601804 834.8591568507346 420.5886855158176L834.8591568507346 420.5886855158176L834.8591568507346 345.1569878840113Q834.8591568507346 342.68193027381085 833.8230862232089 341.6458596462851Q832.7870155956831 340.60978901875933 830.3119579854826 340.60978901875933L830.3119579854826 340.60978901875933L821.5916968704742 340.60978901875933L821.5916968704742 335.630894058705L849.7958417308978 335.630894058705L849.7958417308978 352.61094045426614L850.6016744411955 352.81239863184055Q855.3791112236754 342.8833884513853 862.4301474387813 338.01961244994493Q869.4811836538872 333.12705670885106 877.9712068516678 333.12705670885106L877.9712068516678 333.12705670885106Q893.0805701697518 333.12705670885106 899.4121128935203 342.45169235658295Q905.7436556172889 351.7763280043148 905.7436556172889 364.84232980700085L905.7436556172889 364.84232980700085L905.7436556172889 420.5886855158176Q905.7436556172889 423.06374312601804 906.7797262448147 424.0998137535438Q907.8157968723406 425.1358843810696 910.2908544825409 425.1358843810696L910.2908544825409 425.1358843810696L918.9823358578959 425.1358843810696L918.9823358578959 430.11477934112395L877.5395107568654 430.11477934112395L877.5395107568654 425.1358843810696L886.2597718718739 425.1358843810696Q888.7348294820742 425.1358843810696 889.7709001096001 424.0998137535438Q890.8069707371259 423.06374312601804 890.8069707371259 420.5886855158176L890.8069707371259 420.5886855158176L890.8069707371259 360.8995054744722Q890.8069707371259 351.7763280043148 887.1807235407857 345.35844606158577Q883.5544763444454 338.94056411885674 874.8629949690906 338.94056411885674L874.8629949690906 338.94056411885674Q867.6105005764102 338.94056411885674 861.9121121250184 344.00579829787154Q856.2137236736266 349.09981221653993 852.9903928324354 357.9064125505089Q849.7958417308978 366.7130128844779 849.7958417308978 377.47663551488444L849.7958417308978 377.47663551488444L849.7958417308978 420.5886855158176Q849.7958417308978 423.06374312601804 850.8319123584234 424.0998137535438Q851.8679829859493 425.1358843810696 854.3430405961496 425.1358843810696L854.3430405961496 425.1358843810696L863.0345219715047 425.1358843810696L863.0345219715047 430.11477934112395L821.5916968704742 430.11477934112395ZM972.0521757789378 432.5898369513244Q962.2958440364037 432.5898369513244 953.920939797237 426.08561578963486Q945.5172558184169 419.5526148882918 940.5383608583625 408.15583798550847Q935.5594658983082 396.75906108272505 935.5594658983082 382.8584468300877L935.5594658983082 382.8584468300877Q935.5594658983082 368.9866123171039 940.5383608583625 357.5898354143205Q945.5172558184169 346.19305851153706 953.920939797237 339.66005761019403Q962.2958440364037 333.12705670885106 972.0521757789378 333.12705670885106L972.0521757789378 333.12705670885106Q980.1105028819161 333.12705670885106 986.5571645642985 338.42252880509386Q992.9750465070276 343.7180009013366 996.0832583896049 351.17195347159145L996.0832583896049 351.17195347159145L996.9178708395563 350.970495294017L996.9178708395563 292.1159277026229Q996.9178708395563 289.612090352769 995.8818002120304 288.5760197252432Q994.8457295845046 287.53994909771745 992.3418922346507 287.53994909771745L992.3418922346507 287.53994909771745L977.4339870941411 287.53994909771745L977.4339870941411 282.58983387731655L1011.8257759800658 282.58983387731655L1011.8257759800658 420.5886855158176Q1011.8257759800658 423.06374312601804 1012.8618466075916 424.0998137535438Q1013.8979172351173 425.1358843810696 1016.3729748453178 425.1358843810696L1016.3729748453178 425.1358843810696L1027.1653772153777 425.1358843810696L1027.1653772153777 430.11477934112395L996.9178708395563 430.11477934112395L996.9178708395563 414.77517810581196L996.0832583896049 414.5737199282375Q992.1404340570763 422.86228494844363 986.0391292505358 427.72606094988396Q979.9090447043416 432.5898369513244 972.0521757789378 432.5898369513244L972.0521757789378 432.5898369513244ZM974.325775211564 426.8051092809722Q980.5421989767185 426.8051092809722 985.7225521143473 422.22913067606675Q990.9029052519761 417.6819318108148 993.8959981759394 409.7099439267971Q996.9178708395563 401.7379560427794 996.9178708395563 392.41332039504755L996.9178708395563 392.41332039504755L996.9178708395563 373.3323530047814Q996.9178708395563 364.0077173570495 993.8959981759394 356.03572947303184Q990.9029052519761 348.0637415890141 985.7225521143473 343.4877629841087Q980.5421989767185 338.94056411885674 974.325775211564 338.94056411885674L974.325775211564 338.94056411885674Q964.1665271138806 338.94056411885674 958.9861739762518 350.3373410216401Q953.805820838623 361.7341179244235 953.805820838623 382.8584468300877L953.805820838623 382.8584468300877Q953.805820838623 404.01155547540543 958.9861739762518 415.4083323781888Q964.1665271138806 426.8051092809722 974.325775211564 426.8051092809722L974.325775211564 426.8051092809722ZM1046.6492609607928 430.11477934112395L1046.6492609607928 423.49543922082046L1061.5571661013023 423.49543922082046Q1067.1404355940804 423.49543922082046 1067.1404355940804 417.88338998838924L1067.1404355940804 417.88338998838924L1067.1404355940804 294.7924434903978Q1067.1404355940804 291.9144695250484 1065.8165675700195 290.5618217613343Q1064.4639198063053 289.20917399762004 1061.5571661013023 289.20917399762004L1061.5571661013023 289.20917399762004L1046.6492609607928 289.20917399762004L1046.6492609607928 282.58983387731655L1106.7413573572871 282.58983387731655L1106.7413573572871 289.20917399762004L1091.804672477124 289.20917399762004Q1088.897918772121 289.20917399762004 1087.5740507480605 290.5618217613343Q1086.2214029843462 291.9144695250484 1086.2214029843462 294.7924434903978L1086.2214029843462 294.7924434903978L1086.2214029843462 417.88338998838924Q1086.2214029843462 423.49543922082046 1091.804672477124 423.49543922082046L1091.804672477124 423.49543922082046L1106.7413573572871 423.49543922082046L1106.7413573572871 430.11477934112395L1046.6492609607928 430.11477934112395ZM1158.113192638773 432.5898369513244Q1148.788556991041 432.5898369513244 1142.6872521845005 425.9704968310209Q1136.5571676383065 419.3511567107174 1136.5571676383065 407.954379807934L1136.5571676383065 407.954379807934L1136.5571676383065 341.41562172905714L1121.2463461426478 341.41562172905714L1121.2463461426478 335.630894058705L1125.7935450078999 335.630894058705Q1135.1181806556317 335.630894058705 1140.4136527518745 325.58676491963575Q1145.6803451084638 315.5138560409131 1145.6803451084638 303.31124642783186L1145.6803451084638 303.31124642783186L1145.6803451084638 295.82851411792353L1151.4938525184693 295.82851411792353L1151.4938525184693 335.630894058705L1177.1941600290393 335.630894058705L1177.1941600290393 341.41562172905714L1151.4938525184693 341.41562172905714L1151.4938525184693 408.99045043545976Q1151.4938525184693 415.2068742006144 1153.96891012867 419.3511567107174Q1156.4727474785238 423.49543922082046 1162.4589333264505 423.49543922082046L1162.4589333264505 423.49543922082046Q1177.1941600290393 423.49543922082046 1177.1941600290393 398.6297441602021L1177.1941600290393 398.6297441602021L1180.9067464443397 398.6297441602021Q1180.9067464443397 412.501578673186 1176.8775828928506 422.54570781225516Q1172.8196396017083 432.5898369513244 1158.113192638773 432.5898369513244L1158.113192638773 432.5898369513244Z " fill="hsl(223 2%   95.7%)" transform="matrix(0.7409560310613014,0,0,0.7409560310613013,0,35.04163213248013)"/></g></svg>